<svg width="22" height="22" viewBox="0 0 22 22" fill="none" xmlns="http://www.w3.org/2000/svg">
<mask id="mask0_3519_2579" style="mask-type:alpha" maskUnits="userSpaceOnUse" x="0" y="0" width="22" height="22">
<rect width="22" height="22" fill="#D9D9D9"/>
</mask>
<g mask="url(#mask0_3519_2579)">
<path d="M18.8833 19.25L14.575 14.9417C13.9486 15.4306 13.2573 15.8125 12.501 16.0875C11.7448 16.3625 10.9389 16.5 10.0833 16.5C8.70831 16.5 7.46699 16.1639 6.35935 15.4917C5.25172 14.8195 4.37706 13.9334 3.7354 12.8334H5.98123C6.50067 13.3987 7.10797 13.8455 7.8031 14.174C8.49824 14.5025 9.25831 14.6667 10.0833 14.6667C11.6111 14.6667 12.9097 14.132 13.9791 13.0625C15.0486 11.9931 15.5833 10.6945 15.5833 9.16671C15.5833 7.63893 15.0486 6.34032 13.9791 5.27087C12.9097 4.20143 11.6111 3.66671 10.0833 3.66671C8.6472 3.66671 7.40588 4.15178 6.35935 5.12192C5.31283 6.09205 4.72845 7.28754 4.60623 8.70837H2.7729C2.89512 6.7681 3.65519 5.13719 5.0531 3.81567C6.45102 2.49414 8.12776 1.83337 10.0833 1.83337C12.1305 1.83337 13.8646 2.54379 15.2854 3.96462C16.7062 5.38546 17.4166 7.11948 17.4166 9.16671C17.4166 10.0223 17.2791 10.8282 17.0041 11.5844C16.7291 12.3407 16.3472 13.032 15.8583 13.6584L20.1666 17.9667L18.8833 19.25ZM9.0979 12.8334L7.65415 8.06671L6.46248 11.4584H1.83331V10.0834H5.49998L7.01248 5.72921H8.38748L9.7854 10.4042L10.7708 7.33337H12.1458L13.5208 10.0834H14.2083V11.4584H12.6729L11.5958 9.30421L10.45 12.8334H9.0979Z" fill="#454B52"/>
</g>
</svg>
