<svg width="22" height="22" viewBox="0 0 22 22" fill="none" xmlns="http://www.w3.org/2000/svg">
<mask id="mask0_3519_2583" style="mask-type:alpha" maskUnits="userSpaceOnUse" x="0" y="0" width="22" height="22">
<rect width="22" height="22" fill="#D9D9D9"/>
</mask>
<g mask="url(#mask0_3519_2583)">
<path d="M15.2625 11.9167L10.0833 6.73752L15.2625 1.55835L20.4417 6.73752L15.2625 11.9167ZM2.75 10.0834V2.75002H10.0833V10.0834H2.75ZM11.9167 19.25V11.9167H19.25V19.25H11.9167ZM2.75 19.25V11.9167H10.0833V19.25H2.75ZM4.58333 8.25002H8.25V4.58335H4.58333V8.25002ZM15.2854 9.35002L17.875 6.76043L15.2854 4.17085L12.6958 6.76043L15.2854 9.35002ZM13.75 17.4167H17.4167V13.75H13.75V17.4167ZM4.58333 17.4167H8.25V13.75H4.58333V17.4167Z" fill="#454B52"/>
</g>
</svg>
