<svg width="22" height="22" viewBox="0 0 22 22" fill="none" xmlns="http://www.w3.org/2000/svg">
<mask id="mask0_3519_2738" style="mask-type:alpha" maskUnits="userSpaceOnUse" x="0" y="0" width="22" height="22">
<rect width="22" height="22" fill="#D9D9D9"/>
</mask>
<g mask="url(#mask0_3519_2738)">
<path d="M6.41671 16.4999C6.15698 16.4999 5.93928 16.4121 5.76358 16.2364C5.58789 16.0607 5.50004 15.843 5.50004 15.5833V13.7499H17.4167V5.49992H19.25C19.5098 5.49992 19.7275 5.58777 19.9032 5.76346C20.0789 5.93915 20.1667 6.15686 20.1667 6.41658V20.1666L16.5 16.4999H6.41671ZM1.83337 15.5833V2.74992C1.83337 2.4902 1.92122 2.27249 2.09692 2.09679C2.27261 1.9211 2.49032 1.83325 2.75004 1.83325H14.6667C14.9264 1.83325 15.1441 1.9211 15.3198 2.09679C15.4955 2.27249 15.5834 2.4902 15.5834 2.74992V10.9999C15.5834 11.2596 15.4955 11.4773 15.3198 11.653C15.1441 11.8287 14.9264 11.9166 14.6667 11.9166H5.50004L1.83337 15.5833ZM13.75 10.0833V3.66659H3.66671V10.0833H13.75Z" fill="#454B52"/>
</g>
</svg>
