<svg width="22" height="22" viewBox="0 0 22 22" fill="none" xmlns="http://www.w3.org/2000/svg">
<mask id="mask0_3519_2567" style="mask-type:alpha" maskUnits="userSpaceOnUse" x="0" y="0" width="22" height="22">
<rect width="22" height="22" fill="#D9D9D9"/>
</mask>
<g mask="url(#mask0_3519_2567)">
<path d="M5.50002 18.3333C4.73613 18.3333 4.08683 18.0659 3.5521 17.5312C3.01738 16.9965 2.75002 16.3472 2.75002 15.5833H0.916687V5.49996C0.916687 4.99579 1.0962 4.5642 1.45523 4.20517C1.81426 3.84614 2.24585 3.66663 2.75002 3.66663H15.5834V7.33329H18.3334L21.0834 11V15.5833H19.25C19.25 16.3472 18.9827 16.9965 18.4479 17.5312C17.9132 18.0659 17.2639 18.3333 16.5 18.3333C15.7361 18.3333 15.0868 18.0659 14.5521 17.5312C14.0174 16.9965 13.75 16.3472 13.75 15.5833H8.25002C8.25002 16.3472 7.98266 16.9965 7.44794 17.5312C6.91321 18.0659 6.26391 18.3333 5.50002 18.3333ZM5.50002 16.5C5.75974 16.5 5.97745 16.4121 6.15315 16.2364C6.32884 16.0607 6.41669 15.843 6.41669 15.5833C6.41669 15.3236 6.32884 15.1059 6.15315 14.9302C5.97745 14.7545 5.75974 14.6666 5.50002 14.6666C5.2403 14.6666 5.02259 14.7545 4.84689 14.9302C4.6712 15.1059 4.58335 15.3236 4.58335 15.5833C4.58335 15.843 4.6712 16.0607 4.84689 16.2364C5.02259 16.4121 5.2403 16.5 5.50002 16.5ZM2.75002 13.75H3.48335C3.74308 13.475 4.04099 13.2534 4.3771 13.0854C4.71321 12.9173 5.08752 12.8333 5.50002 12.8333C5.91252 12.8333 6.28683 12.9173 6.62294 13.0854C6.95905 13.2534 7.25696 13.475 7.51669 13.75H13.75V5.49996H2.75002V13.75ZM16.5 16.5C16.7597 16.5 16.9774 16.4121 17.1531 16.2364C17.3288 16.0607 17.4167 15.843 17.4167 15.5833C17.4167 15.3236 17.3288 15.1059 17.1531 14.9302C16.9774 14.7545 16.7597 14.6666 16.5 14.6666C16.2403 14.6666 16.0226 14.7545 15.8469 14.9302C15.6712 15.1059 15.5834 15.3236 15.5834 15.5833C15.5834 15.843 15.6712 16.0607 15.8469 16.2364C16.0226 16.4121 16.2403 16.5 16.5 16.5ZM15.5834 11.9166H19.4792L17.4167 9.16663H15.5834V11.9166Z" fill="#454B52"/>
</g>
</svg>
