<svg width="22" height="22" viewBox="0 0 22 22" fill="none" xmlns="http://www.w3.org/2000/svg">
<mask id="mask0_3519_2575" style="mask-type:alpha" maskUnits="userSpaceOnUse" x="0" y="0" width="22" height="22">
<rect width="22" height="22" fill="#D9D9D9"/>
</mask>
<g mask="url(#mask0_3519_2575)">
<path d="M3.62087 17.4167L1.87921 11.2751C1.83337 11.0917 1.85247 10.8779 1.9365 10.6334C2.02053 10.389 2.20004 10.2209 2.47504 10.1292L3.66671 9.71675V5.50008C3.66671 4.99591 3.84622 4.56432 4.20525 4.20529C4.56428 3.84626 4.99587 3.66675 5.50004 3.66675H8.25004V0.916748H13.75V3.66675H16.5C17.0042 3.66675 17.4358 3.84626 17.7948 4.20529C18.1539 4.56432 18.3334 4.99591 18.3334 5.50008V9.71675L19.525 10.1292C19.8459 10.2515 20.0368 10.431 20.098 10.6678C20.1591 10.9046 20.1667 11.107 20.1209 11.2751L18.3792 17.4167C17.6153 17.4167 16.9202 17.2372 16.2938 16.8782C15.6674 16.5192 15.125 16.0876 14.6667 15.5834C14.2084 16.0876 13.666 16.5192 13.0396 16.8782C12.4132 17.2372 11.7334 17.4167 11 17.4167C10.2667 17.4167 9.58685 17.2372 8.96046 16.8782C8.33407 16.5192 7.79171 16.0876 7.33337 15.5834C6.87504 16.0876 6.33268 16.5192 5.70629 16.8782C5.0799 17.2372 4.38476 17.4167 3.62087 17.4167ZM1.83337 21.0834V19.2501H3.66671C4.30837 19.2501 4.9424 19.1508 5.56879 18.9522C6.19518 18.7536 6.78337 18.4556 7.33337 18.0584C7.88337 18.4556 8.47157 18.7459 9.09796 18.9292C9.72435 19.1126 10.3584 19.2043 11 19.2043C11.6417 19.2043 12.2757 19.1126 12.9021 18.9292C13.5285 18.7459 14.1167 18.4556 14.6667 18.0584C15.2167 18.4556 15.8049 18.7536 16.4313 18.9522C17.0577 19.1508 17.6917 19.2501 18.3334 19.2501H20.1667V21.0834H18.3334C17.6917 21.0834 17.0653 21.007 16.4542 20.8542C15.8431 20.7015 15.2473 20.4723 14.6667 20.1667C14.0862 20.4723 13.4865 20.7015 12.8677 20.8542C12.249 21.007 11.6264 21.0834 11 21.0834C10.3737 21.0834 9.75108 21.007 9.13233 20.8542C8.51358 20.7015 7.91393 20.4723 7.33337 20.1667C6.75282 20.4723 6.15699 20.7015 5.54587 20.8542C4.93476 21.007 4.30837 21.0834 3.66671 21.0834H1.83337ZM5.50004 9.12092L11 7.33342L16.5 9.12092V5.50008H5.50004V9.12092ZM11 15.5834C11.7181 15.5834 12.3254 15.3313 12.8219 14.8272C13.3184 14.323 13.9334 13.6431 14.6667 12.7876C15.4 13.6126 15.8966 14.1779 16.1563 14.4834C16.416 14.789 16.7292 15.0487 17.0959 15.2626L18.1042 11.5959L11 9.25842L3.85004 11.5959L4.90421 15.2167C5.27087 15.0029 5.58407 14.7584 5.84379 14.4834C6.10351 14.2084 6.60004 13.6431 7.33337 12.7876C8.09726 13.6584 8.71983 14.3421 9.20108 14.8386C9.68233 15.3352 10.282 15.5834 11 15.5834Z" fill="#454B52"/>
</g>
</svg>
