<svg width="22" height="22" viewBox="0 0 22 22" fill="none" xmlns="http://www.w3.org/2000/svg">
<mask id="mask0_3519_2563" style="mask-type:alpha" maskUnits="userSpaceOnUse" x="0" y="0" width="22" height="22">
<rect width="22" height="22" fill="#D9D9D9"/>
</mask>
<g mask="url(#mask0_3519_2563)">
<path d="M11.9167 10.0834H18.2875C18.0584 8.40282 17.3594 6.97817 16.1907 5.80942C15.0219 4.64067 13.5973 3.94171 11.9167 3.71254V10.0834ZM10.0834 18.2875V3.71254C8.23476 3.94171 6.70317 4.74761 5.48858 6.13025C4.274 7.51289 3.66671 9.13615 3.66671 11C3.66671 12.8639 4.274 14.4872 5.48858 15.8698C6.70317 17.2525 8.23476 18.0584 10.0834 18.2875ZM11.9167 18.2875C13.5973 18.0737 15.0257 17.3785 16.2021 16.2021C17.3785 15.0257 18.0737 13.5973 18.2875 11.9167H11.9167V18.2875ZM11 20.1667C9.73198 20.1667 8.54032 19.9261 7.42504 19.4448C6.30976 18.9636 5.33962 18.3105 4.51462 17.4855C3.68962 16.6605 3.0365 15.6903 2.55525 14.575C2.074 13.4598 1.83337 12.2681 1.83337 11C1.83337 9.73198 2.074 8.54032 2.55525 7.42504C3.0365 6.30976 3.68962 5.33962 4.51462 4.51462C5.33962 3.68962 6.30976 3.0365 7.42504 2.55525C8.54032 2.074 9.73198 1.83337 11 1.83337C12.2681 1.83337 13.4559 2.074 14.5636 2.55525C15.6712 3.0365 16.6414 3.69344 17.474 4.52608C18.3066 5.35872 18.9636 6.32886 19.4448 7.4365C19.9261 8.54414 20.1667 9.73198 20.1667 11C20.1667 12.2528 19.9261 13.4368 19.4448 14.5521C18.9636 15.6674 18.3105 16.6414 17.4855 17.474C16.6605 18.3066 15.6903 18.9636 14.575 19.4448C13.4598 19.9261 12.2681 20.1667 11 20.1667Z" fill="#454B52"/>
</g>
</svg>
