<svg width="22" height="22" viewBox="0 0 22 22" fill="none" xmlns="http://www.w3.org/2000/svg">
<mask id="mask0_3519_2734" style="mask-type:alpha" maskUnits="userSpaceOnUse" x="0" y="0" width="22" height="22">
<rect width="22" height="22" fill="#D9D9D9"/>
</mask>
<g mask="url(#mask0_3519_2734)">
<path d="M10.9542 16.4999C11.275 16.4999 11.5462 16.3892 11.7677 16.1676C11.9893 15.9461 12.1 15.6749 12.1 15.3541C12.1 15.0333 11.9893 14.7621 11.7677 14.5405C11.5462 14.319 11.275 14.2083 10.9542 14.2083C10.6334 14.2083 10.3622 14.319 10.1407 14.5405C9.91914 14.7621 9.80837 15.0333 9.80837 15.3541C9.80837 15.6749 9.91914 15.9461 10.1407 16.1676C10.3622 16.3892 10.6334 16.4999 10.9542 16.4999ZM10.1292 12.9708H11.825C11.825 12.4666 11.8823 12.0694 11.9969 11.7791C12.1115 11.4888 12.4362 11.0916 12.9709 10.5874C13.3681 10.1902 13.6813 9.81207 13.9105 9.45304C14.1396 9.09402 14.2542 8.66242 14.2542 8.15825C14.2542 7.3027 13.941 6.64575 13.3146 6.18742C12.6882 5.72909 11.9473 5.49992 11.0917 5.49992C10.2209 5.49992 9.51428 5.72909 8.97192 6.18742C8.42955 6.64575 8.05143 7.19575 7.83754 7.83742L9.35004 8.43325C9.42643 8.15825 9.5983 7.86033 9.86567 7.5395C10.133 7.21867 10.5417 7.05825 11.0917 7.05825C11.5806 7.05825 11.9473 7.19193 12.1917 7.45929C12.4362 7.72665 12.5584 8.02075 12.5584 8.34158C12.5584 8.64714 12.4667 8.9336 12.2834 9.20096C12.1 9.46832 11.8709 9.71659 11.5959 9.94575C10.9237 10.5416 10.5112 10.9923 10.3584 11.2978C10.2056 11.6034 10.1292 12.161 10.1292 12.9708ZM11 20.1666C9.73198 20.1666 8.54032 19.926 7.42504 19.4447C6.30976 18.9635 5.33962 18.3103 4.51462 17.4853C3.68962 16.6603 3.0365 15.6902 2.55525 14.5749C2.074 13.4596 1.83337 12.268 1.83337 10.9999C1.83337 9.73186 2.074 8.5402 2.55525 7.42492C3.0365 6.30964 3.68962 5.3395 4.51462 4.5145C5.33962 3.6895 6.30976 3.03638 7.42504 2.55513C8.54032 2.07388 9.73198 1.83325 11 1.83325C12.2681 1.83325 13.4598 2.07388 14.575 2.55513C15.6903 3.03638 16.6605 3.6895 17.4855 4.5145C18.3105 5.3395 18.9636 6.30964 19.4448 7.42492C19.9261 8.5402 20.1667 9.73186 20.1667 10.9999C20.1667 12.268 19.9261 13.4596 19.4448 14.5749C18.9636 15.6902 18.3105 16.6603 17.4855 17.4853C16.6605 18.3103 15.6903 18.9635 14.575 19.4447C13.4598 19.926 12.2681 20.1666 11 20.1666ZM11 18.3333C13.0473 18.3333 14.7813 17.6228 16.2021 16.202C17.623 14.7812 18.3334 13.0471 18.3334 10.9999C18.3334 8.9527 17.623 7.21867 16.2021 5.79784C14.7813 4.377 13.0473 3.66659 11 3.66659C8.95282 3.66659 7.21879 4.377 5.79796 5.79784C4.37712 7.21867 3.66671 8.9527 3.66671 10.9999C3.66671 13.0471 4.37712 14.7812 5.79796 16.202C7.21879 17.6228 8.95282 18.3333 11 18.3333Z" fill="#454B52"/>
</g>
</svg>
