<svg width="28" height="29" viewBox="0 0 28 29" fill="none" xmlns="http://www.w3.org/2000/svg">
<path d="M14 16.25C13.1347 16.25 12.2888 15.9934 11.5694 15.5127C10.8499 15.032 10.2892 14.3487 9.95803 13.5492C9.6269 12.7498 9.54026 11.8701 9.70907 11.0215C9.87788 10.1728 10.2946 9.39327 10.9064 8.78141C11.5183 8.16956 12.2978 7.75288 13.1465 7.58407C13.9951 7.41526 14.8748 7.5019 15.6742 7.83303C16.4737 8.16416 17.157 8.72492 17.6377 9.44438C18.1184 10.1638 18.375 11.0097 18.375 11.875C18.3737 13.0349 17.9123 14.147 17.0921 14.9671C16.272 15.7873 15.1599 16.2487 14 16.25ZM14 9.25C13.4808 9.25 12.9733 9.40396 12.5416 9.69239C12.11 9.98083 11.7735 10.3908 11.5748 10.8705C11.3761 11.3501 11.3242 11.8779 11.4254 12.3871C11.5267 12.8963 11.7767 13.364 12.1438 13.7312C12.511 14.0983 12.9787 14.3483 13.4879 14.4496C13.9971 14.5509 14.5249 14.4989 15.0045 14.3002C15.4842 14.1015 15.8942 13.7651 16.1826 13.3334C16.4711 12.9017 16.625 12.3942 16.625 11.875C16.6242 11.179 16.3474 10.5118 15.8553 10.0197C15.3632 9.52757 14.696 9.25077 14 9.25Z" fill="#454B52"/>
<path d="M14 26.75L6.61895 18.0449C6.57703 17.9949 6.31427 17.6498 6.31427 17.6498C5.05331 15.989 4.37205 13.9603 4.37501 11.875C4.37501 9.32229 5.38907 6.87414 7.19411 5.0691C8.99915 3.26406 11.4473 2.25 14 2.25C16.5527 2.25 19.0009 3.26406 20.8059 5.0691C22.611 6.87414 23.625 9.32229 23.625 11.875C23.6282 13.9594 22.9474 15.9873 21.6871 17.6476L21.6858 17.6498C21.6858 17.6498 21.4232 17.9949 21.3841 18.0413L14 26.75ZM7.71095 16.5956C7.71182 16.5962 7.91517 16.8653 7.96172 16.9232L14 24.0444L20.0463 16.9132C20.0847 16.8649 20.2898 16.5939 20.2902 16.5932C21.3203 15.2361 21.877 13.5787 21.875 11.875C21.875 9.78642 21.0453 7.78338 19.5685 6.30653C18.0916 4.82968 16.0886 4 14 4C11.9114 4 9.90839 4.82968 8.43154 6.30653C6.95469 7.78338 6.12501 9.78642 6.12501 11.875C6.12307 13.5797 6.68018 15.2379 7.71095 16.5956Z" fill="#454B52"/>
</svg>
