<svg width="24" height="25" viewBox="0 0 24 25" fill="none" xmlns="http://www.w3.org/2000/svg">
<path d="M2.3999 20.09V18.29H4.7999V9.59C4.7999 7.95 5.3051 6.5048 6.3155 5.2544C7.3251 4.0048 8.6199 3.2 10.1999 2.84V2C10.1999 1.58 10.3451 1.2248 10.6355 0.9344C10.9251 0.6448 11.2799 0.5 11.6999 0.5C12.1199 0.5 12.4747 0.6448 12.7643 0.9344C13.0547 1.2248 13.1999 1.58 13.1999 2V2.84C14.7799 3.2 16.0751 4.0048 17.0855 5.2544C18.0951 6.5048 18.5999 7.95 18.5999 9.59V18.29H20.9999V20.09H2.3999ZM11.6999 23.6C11.0999 23.6 10.5899 23.39 10.1699 22.97C9.7499 22.55 9.5399 22.04 9.5399 21.44H13.8599C13.8599 22.04 13.6499 22.55 13.2299 22.97C12.8099 23.39 12.2999 23.6 11.6999 23.6ZM6.5999 18.29H16.7999V9.59C16.7999 8.17 16.3047 6.9648 15.3143 5.9744C14.3247 4.9848 13.1199 4.49 11.6999 4.49C10.2799 4.49 9.0751 4.9848 8.0855 5.9744C7.0951 6.9648 6.5999 8.17 6.5999 9.59V18.29Z" fill="#434345"/>
<circle cx="16" cy="4.5" r="3.5" fill="#FF3A2F" stroke="white"/>
</svg>
