<svg width="14" height="13" viewBox="0 0 14 13" fill="none" xmlns="http://www.w3.org/2000/svg">
<path fill-rule="evenodd" clip-rule="evenodd" d="M0 1.5C0 0.947715 0.313401 0.5 0.7 0.5H13.3C13.6866 0.5 14 0.947715 14 1.5C14 2.05228 13.6866 2.5 13.3 2.5H0.7C0.313401 2.5 0 2.05228 0 1.5ZM0 6.5C0 5.94772 0.313401 5.5 0.7 5.5H13.3C13.6866 5.5 14 5.94772 14 6.5C14 7.05228 13.6866 7.5 13.3 7.5H0.7C0.313401 7.5 0 7.05228 0 6.5ZM0.7 10.5C0.313401 10.5 0 10.9477 0 11.5C0 12.0523 0.313401 12.5 0.7 12.5H13.3C13.6866 12.5 14 12.0523 14 11.5C14 10.9477 13.6866 10.5 13.3 10.5H0.7Z" fill="#1971D4"/>
</svg>
